<svg xmlns="http://www.w3.org/2000/svg" width="43.068" height="43.069" viewBox="0 0 43.068 43.069">
  <g id="_7b75e1dbdd8a1377137892aaf042236b" data-name="7b75e1dbdd8a1377137892aaf042236b" transform="translate(0 0.002)">
    <path id="Trazado_6" data-name="Trazado 6" d="M34.656,9.421a3.365,3.365,0,1,0,3.365,3.365A3.365,3.365,0,0,0,34.656,9.421ZM2.019,2.019A2.019,2.019,0,1,0,4.038,4.038,2.019,2.019,0,0,0,2.019,2.019Zm0,2.692a.673.673,0,1,1,.673-.673A.673.673,0,0,1,2.019,4.711ZM7.4,0A2.019,2.019,0,1,0,9.421,2.019,2.019,2.019,0,0,0,7.4,0Zm0,2.692a.673.673,0,1,1,.673-.673A.673.673,0,0,1,7.4,2.692ZM27.927,32.974a3.365,3.365,0,1,0,3.365,3.365A3.365,3.365,0,0,0,27.927,32.974ZM7.739,5.383a2.355,2.355,0,1,0,2.355,2.355A2.355,2.355,0,0,0,7.739,5.383Zm0,3.365A1.009,1.009,0,1,1,8.748,7.739,1.009,1.009,0,0,1,7.739,8.748ZM31.7,33.537a4.7,4.7,0,0,1,.642,1.189,11.483,11.483,0,0,0,4.49-17.769,4.671,4.671,0,0,1-1.367.464A10.141,10.141,0,0,1,31.7,33.537ZM12.113,11.44H.673a.673.673,0,0,0,0,1.346h.336v1.346H2.692a.673.673,0,0,1,0,1.346H1.009v.673H2.692a.673.673,0,1,1,0,1.346H1.009v.673H2.692a.673.673,0,0,1,0,1.346H1.009v.673H2.692a.673.673,0,0,1,0,1.346H1.009v.673H2.692a.673.673,0,1,1,0,1.346H1.009v.673H2.692a.673.673,0,0,1,0,1.346H1.009v.673H2.692a.673.673,0,1,1,0,1.346H1.009v.673H2.692a.673.673,0,0,1,0,1.346H1.009v.673H2.692a.673.673,0,0,1,0,1.346H1.009V32.3H2.692a.673.673,0,0,1,0,1.346H1.009v.673H2.692a.673.673,0,0,1,0,1.346H1.009v.673H2.692a.673.673,0,0,1,0,1.346H1.009v.673H2.692a.673.673,0,0,1,0,1.346H1.009v.019a3.369,3.369,0,0,0,3.385,3.346h4a3.369,3.369,0,0,0,3.385-3.346V39.7H10.094a.673.673,0,1,1,0-1.346h1.682v-.673H10.094a.673.673,0,1,1,0-1.346h1.682v-.673H10.094a.673.673,0,1,1,0-1.346h1.682v-.673H10.094a.673.673,0,1,1,0-1.346h1.682v-.673H10.094a.673.673,0,0,1,0-1.346h1.682v-.673H10.094a.673.673,0,0,1,0-1.346h1.682V27.59H10.094a.673.673,0,1,1,0-1.346h1.682v-.673H10.094a.673.673,0,0,1,0-1.346h1.682v-.673H10.094a.673.673,0,1,1,0-1.346h1.682v-.673H10.094a.673.673,0,0,1,0-1.346h1.682v-.673H10.094a.673.673,0,1,1,0-1.346h1.682V17.5H10.094a.673.673,0,1,1,0-1.346h1.682v-.673H10.094a.673.673,0,1,1,0-1.346h1.682V12.786h.336a.673.673,0,1,0,0-1.346ZM27.16,19.952,20.4,12.924l-.905-.942a.592.592,0,0,0-.165-.124.74.74,0,0,0-.188-.067.58.58,0,0,0-.131-.013.673.673,0,0,0-.485,1.141l2.49,2.587-3.725,3.684a1.5,1.5,0,0,0-.04,2.137l1.39,1.427a1.558,1.558,0,0,0,2.16.044l3.7-3.664,2.436,2.534a.845.845,0,0,0,.1.087.681.681,0,0,0,.656.057.726.726,0,0,0,.087-.047.617.617,0,0,0,.1-.081.674.674,0,0,0,.017-.952Z" transform="translate(0 -0.002)" fill="#fff"/>
    <path id="Trazado_7" data-name="Trazado 7" d="M65.652.964l-.2-.236-.03-.037A2.232,2.232,0,0,0,63.855,0,2.187,2.187,0,0,0,62.26.628L59.649,3.161a3.006,3.006,0,0,0-1.615-.471,3.039,3.039,0,0,0-2.126.868l-8.664,8.425L54,19.012,57.1,16a4.778,4.778,0,0,1-.935-1.457,4.646,4.646,0,0,1-.343-1.76,4.716,4.716,0,0,1,4.711-4.711,4.658,4.658,0,0,1,2.436.686s0,0,.007,0a5.71,5.71,0,0,1,.5.347,3.144,3.144,0,0,0-.468-2.5l2.561-2.486A2.265,2.265,0,0,0,65.652.964ZM55.625,9.221,52.26,12.586a.671.671,0,1,1-.949-.949l3.365-3.365a.671.671,0,1,1,.949.949Zm9.007-6.063L62.109,5.607l-1.46-1.541L63.2,1.593a.852.852,0,0,1,.633-.249.888.888,0,0,1,.609.259l.188.232.03.037A.915.915,0,0,1,64.632,3.158Zm-1.743,35.2H58.3a15.153,15.153,0,0,0,6.823-24.527,4.675,4.675,0,0,1-.573,1.4,13.817,13.817,0,0,1-6.07,21.651h0a4.707,4.707,0,0,1-9.2.757c-.008-.028-.014-.057-.022-.085-.028-.1-.055-.2-.076-.31-.028-.138-.05-.278-.064-.42a13.746,13.746,0,0,1-7.411-6.545h2.118a11.555,11.555,0,0,0,5.512,4.568,4.672,4.672,0,0,1,.234-.567c.013-.028.026-.056.04-.083.041-.079.084-.157.129-.234.02-.034.041-.068.062-.1.047-.076.095-.152.146-.225a10.2,10.2,0,0,1-4.483-3.358h2.281a.673.673,0,1,0,0-1.346H39V30.28h1.211a15.088,15.088,0,0,0,9.23,8.075H43.374a2.021,2.021,0,0,0-2.019,2.019v.673a2.021,2.021,0,0,0,2.019,2.019H62.889a2.021,2.021,0,0,0,2.019-2.019v-.673A2.021,2.021,0,0,0,62.889,38.356Z" transform="translate(-25.878)" fill="#fff"/>
  </g>
</svg>
