<svg xmlns="http://www.w3.org/2000/svg" width="52.99" height="53.028" viewBox="0 0 52.99 53.028">
  <path id="eeeb363f7d142ebd1109b6b374e76e78" d="M12.28.26A2.408,2.408,0,0,0,9.9,2.715v2.4H2.681A2.408,2.408,0,0,0,.264,7.531V50.871a2.408,2.408,0,0,0,2.417,2.417H50.836a2.408,2.408,0,0,0,2.418-2.417V7.531a2.408,2.408,0,0,0-2.418-2.417H43.622v-2.4a2.411,2.411,0,1,0-4.821,0v2.4H29.169v-2.4a2.411,2.411,0,1,0-4.821,0v2.4H14.716v-2.4A2.408,2.408,0,0,0,12.28.26ZM5.08,9.935H9.9v2.417a2.409,2.409,0,1,0,4.816,0V9.935h9.632v2.417a2.41,2.41,0,0,0,4.821,0V9.935H38.8v2.417a2.41,2.41,0,0,0,4.821,0V9.935h4.816v9.632H5.08Zm0,14.448H48.438V48.472H5.08ZM21.945,29.2a2.408,2.408,0,1,0,2.408,2.408A2.408,2.408,0,0,0,21.945,29.2Zm9.632,0a2.408,2.408,0,1,0,2.408,2.408A2.408,2.408,0,0,0,31.577,29.2Zm9.632,0a2.408,2.408,0,1,0,2.408,2.408A2.408,2.408,0,0,0,41.209,29.2Zm-28.9,9.632a2.408,2.408,0,1,0,2.408,2.408A2.408,2.408,0,0,0,12.313,38.831Zm9.632,0a2.408,2.408,0,1,0,2.408,2.408A2.408,2.408,0,0,0,21.945,38.831Zm9.632,0a2.408,2.408,0,1,0,2.408,2.408A2.408,2.408,0,0,0,31.577,38.831Z" transform="translate(-0.264 -0.26)" fill="#fff" fill-rule="evenodd"/>
</svg>
