<svg xmlns="http://www.w3.org/2000/svg" width="48" height="48" viewBox="0 0 48 48">
  <g id="Layer_10" data-name="Layer 10" transform="translate(-1 -1)">
    <path id="Trazado_8" data-name="Trazado 8" d="M23.065,30.1H20.742V27.774A.774.774,0,0,0,19.968,27h-3.1a.774.774,0,0,0-.774.774V30.1H13.774a.774.774,0,0,0-.774.774v3.1a.774.774,0,0,0,.774.774H16.1v2.323a.774.774,0,0,0,.774.774h3.1a.774.774,0,0,0,.774-.774V34.742h2.323a.774.774,0,0,0,.774-.774v-3.1A.774.774,0,0,0,23.065,30.1Zm-.774,3.1H19.968a.774.774,0,0,0-.774.774V36.29H17.645V33.968a.774.774,0,0,0-.774-.774H14.548V31.645h2.323a.774.774,0,0,0,.774-.774V28.548h1.548v2.323a.774.774,0,0,0,.774.774H22.29Z" transform="translate(-2.71 -5.871)" fill="#fff"/>
    <path id="Trazado_9" data-name="Trazado 9" d="M45.9,30.419H30.419V17.258a.774.774,0,0,0-.186-.5l-4.459-5.2V8.742h.774a.774.774,0,0,0,.774-.774V1.774A.774.774,0,0,0,26.548,1H4.871a.774.774,0,0,0-.774.774V7.968a.774.774,0,0,0,.774.774h.774v2.81l-4.459,5.2a.774.774,0,0,0-.186.5V37.387a3.871,3.871,0,0,0,3.871,3.871h14.71V45.9a3.1,3.1,0,0,0,3.1,3.1H45.9A3.1,3.1,0,0,0,49,45.9V33.516A3.1,3.1,0,0,0,45.9,30.419ZM5.645,2.548H25.774V7.194H5.645ZM24.226,8.742v2.323H7.194V8.742ZM6.775,12.613H24.644l3.321,3.871H3.454Zm-1.9,27.1a2.323,2.323,0,0,1-2.323-2.323v-.774H19.581v3.1Zm14.71-6.194v1.548H2.548V18.032H28.871V30.419H22.677A3.1,3.1,0,0,0,19.581,33.516ZM47.452,45.9A1.548,1.548,0,0,1,45.9,47.452H22.677A1.548,1.548,0,0,1,21.129,45.9V33.516a1.548,1.548,0,0,1,1.548-1.548H45.9a1.548,1.548,0,0,1,1.548,1.548Z" fill="#fff"/>
    <path id="Trazado_10" data-name="Trazado 10" d="M31.323,35.33a2.323,2.323,0,1,0,2.323,2.323A2.323,2.323,0,0,0,31.323,35.33Zm0,3.1a.774.774,0,1,1,.774-.774A.774.774,0,0,1,31.323,38.427Zm6.194-3.1a2.323,2.323,0,1,0,2.323,2.323A2.323,2.323,0,0,0,37.516,35.33Zm0,3.1a.774.774,0,1,1,.774-.774A.774.774,0,0,1,37.516,38.427Zm6.194-3.1a2.323,2.323,0,1,0,2.323,2.323A2.323,2.323,0,0,0,43.71,35.33Zm0,3.1a.774.774,0,1,1,.774-.774A.774.774,0,0,1,43.71,38.427Zm6.194-3.1a2.323,2.323,0,1,0,2.323,2.323A2.323,2.323,0,0,0,49.9,35.33Zm0,3.1a.774.774,0,1,1,.774-.774A.774.774,0,0,1,49.9,38.427ZM31.323,43.072a2.323,2.323,0,1,0,2.323,2.323,2.323,2.323,0,0,0-2.323-2.323Zm0,3.1a.774.774,0,1,1,.774-.774A.774.774,0,0,1,31.323,46.169Zm6.194-3.1a2.323,2.323,0,1,0,2.323,2.323,2.323,2.323,0,0,0-2.323-2.323Zm0,3.1a.774.774,0,1,1,.774-.774A.774.774,0,0,1,37.516,46.169Zm6.194-3.1a2.323,2.323,0,1,0,2.323,2.323,2.323,2.323,0,0,0-2.323-2.323Zm0,3.1a.774.774,0,1,1,.774-.774A.774.774,0,0,1,43.71,46.169Zm6.194-3.1a2.323,2.323,0,1,0,2.323,2.323A2.323,2.323,0,0,0,49.9,43.072Zm0,3.1a.774.774,0,1,1,.774-.774A.774.774,0,0,1,49.9,46.169ZM43.71,25.723a2.632,2.632,0,0,0,0,3.732l.457.457a2.632,2.632,0,0,0,3.732,0l3.554-3.554a2.632,2.632,0,0,0,0-3.732l-.457-.457a2.7,2.7,0,0,0-3.732,0Zm3.1,3.1a1.146,1.146,0,0,1-1.548,0l-.457-.457a1.1,1.1,0,0,1,0-1.548l1.231-1.231,2.005,2.005Zm2.323-5.876a1.107,1.107,0,0,1,.774.317l.457.457a1.1,1.1,0,0,1,0,1.548L49.129,26.5l-2.005-2.005,1.231-1.231a1.107,1.107,0,0,1,.774-.317Zm-5.737-5.419a2.632,2.632,0,0,0,3.732,0l.457-.457a2.632,2.632,0,0,0,0-3.732L44.027,9.782a2.7,2.7,0,0,0-3.732,0l-.457.457a2.632,2.632,0,0,0,0,3.732ZM46.806,15.2a1.107,1.107,0,0,1-.317.774l-.457.457a1.146,1.146,0,0,1-1.548,0L43.253,15.2,45.258,13.2l1.231,1.231a1.107,1.107,0,0,1,.317.774ZM40.93,11.33l.457-.457a1.1,1.1,0,0,1,1.548,0L44.166,12.1,42.161,14.11,40.93,12.879a1.1,1.1,0,0,1,0-1.548Z" transform="translate(-6.323 -1.814)" fill="#fff"/>
  </g>
</svg>
