<svg xmlns="http://www.w3.org/2000/svg" width="27.32" height="24.588" viewBox="0 0 27.32 24.588">
  <path id="f36090769ad7d30db2b6fb519cf1a2da" d="M15.66,3S7.21,10.294,2.488,14.245A1.422,1.422,0,0,0,2,15.294,1.366,1.366,0,0,0,3.366,16.66H6.1v9.562a1.366,1.366,0,0,0,1.366,1.366h4.1a1.366,1.366,0,0,0,1.366-1.366V20.758h5.464v5.464a1.366,1.366,0,0,0,1.366,1.366h4.1a1.366,1.366,0,0,0,1.366-1.366V16.66h2.732a1.366,1.366,0,0,0,1.366-1.366,1.339,1.339,0,0,0-.523-1.049C24.107,10.294,15.66,3,15.66,3Z" transform="translate(-2 -3)" fill="#2095d2"/>
</svg>
