<svg xmlns="http://www.w3.org/2000/svg" width="22.749" height="22.765" viewBox="0 0 22.749 22.765">
  <path id="eeeb363f7d142ebd1109b6b374e76e78" d="M5.422.26A1.034,1.034,0,0,0,4.4,1.314v1.03H1.3A1.034,1.034,0,0,0,.264,3.382V21.987A1.034,1.034,0,0,0,1.3,23.025H21.974a1.034,1.034,0,0,0,1.038-1.038V3.382a1.034,1.034,0,0,0-1.038-1.038h-3.1V1.314a1.035,1.035,0,1,0-2.07,0v1.03H12.673V1.314a1.035,1.035,0,1,0-2.07,0v1.03H6.468V1.314A1.034,1.034,0,0,0,5.422.26ZM2.331,4.413H4.4V5.451a1.034,1.034,0,1,0,2.068,0V4.413H10.6V5.451a1.035,1.035,0,0,0,2.07,0V4.413h4.135V5.451a1.035,1.035,0,0,0,2.07,0V4.413h2.068V8.548H2.331Zm0,6.2H20.945V20.957H2.331Zm7.24,2.068a1.034,1.034,0,1,0,1.034,1.034A1.034,1.034,0,0,0,9.571,12.683Zm4.135,0a1.034,1.034,0,1,0,1.034,1.034A1.034,1.034,0,0,0,13.706,12.683Zm4.135,0a1.034,1.034,0,1,0,1.034,1.034A1.034,1.034,0,0,0,17.841,12.683ZM5.436,16.818A1.034,1.034,0,1,0,6.47,17.852,1.034,1.034,0,0,0,5.436,16.818Zm4.135,0a1.034,1.034,0,1,0,1.034,1.034A1.034,1.034,0,0,0,9.571,16.818Zm4.135,0a1.034,1.034,0,1,0,1.034,1.034A1.034,1.034,0,0,0,13.706,16.818Z" transform="translate(-0.264 -0.26)" fill="#2095d2" fill-rule="evenodd"/>
</svg>
