<svg xmlns="http://www.w3.org/2000/svg" width="23.906" height="17.556" viewBox="0 0 23.906 17.556">
  <g id="dd302d7fca2cc59732356ca1c87c4cd3" transform="translate(0 -17)">
    <path id="Trazado_37" data-name="Trazado 37" d="M45.766,22.976a2.988,2.988,0,1,0-2.988-2.988,2.988,2.988,0,0,0,2.988,2.988Zm0-5.229a2.241,2.241,0,1,1-2.241,2.241A2.241,2.241,0,0,1,45.766,17.747Zm-8.8,11.579h.453a3.894,3.894,0,0,1-.795-.726A2.959,2.959,0,0,0,34,31.529v2.653a.374.374,0,0,0,.374.374H44.832a.374.374,0,0,0,.374-.374V31.529A2.959,2.959,0,0,0,42.581,28.6a3.894,3.894,0,0,1-.795.726h.453a2.213,2.213,0,0,1,2.219,2.2v2.28h-.934V32.315a.374.374,0,1,0-.747,0v1.494h-6.35V32.346a.374.374,0,0,0-.747,0v1.463h-.934v-2.28a2.213,2.213,0,0,1,2.219-2.2Z" transform="translate(-27.65)" fill="#2095d2"/>
    <path id="Trazado_38" data-name="Trazado 38" d="M8.837,26.143a3.116,3.116,0,1,0,3.116-3.116A3.116,3.116,0,0,0,8.837,26.143Zm3.116-2.369a2.369,2.369,0,1,1-2.369,2.369A2.369,2.369,0,0,1,11.953,23.774Zm-6.163-.8A2.988,2.988,0,1,0,2.8,19.988,2.988,2.988,0,0,0,5.79,22.976Zm0-5.229a2.241,2.241,0,1,1-2.241,2.241A2.241,2.241,0,0,1,5.79,17.747Zm2.232,5.229h.57a2.237,2.237,0,0,1,.9.19A3.876,3.876,0,0,1,10.2,22.7a2.98,2.98,0,0,0-1.435-.467A3.76,3.76,0,0,1,8.021,22.976Zm7.293,0h.57a3.76,3.76,0,0,1-.743-.738,2.98,2.98,0,0,0-1.435.467,3.876,3.876,0,0,1,.706.462,2.237,2.237,0,0,1,.9-.19ZM1.121,34.556H5.668a1.113,1.113,0,0,1-.065-.374v-.374H2.615v-2.53a.374.374,0,1,0-.747,0v2.53H1.121a.372.372,0,0,1-.374-.37V25.2a2.237,2.237,0,0,1,2.241-2.228h.57a3.76,3.76,0,0,1-.743-.738A2.982,2.982,0,0,0,0,25.2v8.234a1.12,1.12,0,0,0,1.121,1.117ZM20.348,22.976h.57A2.237,2.237,0,0,1,23.159,25.2v8.234a.372.372,0,0,1-.374.37h-.747v-2.53a.374.374,0,1,0-.747,0v2.53H18.3v.374a1.113,1.113,0,0,1-.065.374h4.548a1.12,1.12,0,0,0,1.121-1.117V25.2a2.982,2.982,0,0,0-2.815-2.967A3.76,3.76,0,0,1,20.348,22.976Z" fill="#2095d2"/>
  </g>
</svg>
