<svg xmlns="http://www.w3.org/2000/svg" width="18.053" height="22.64" viewBox="0 0 18.053 22.64">
  <g id="_33fb81a88a2d74d6c42a22e9f8c62cb2" data-name="33fb81a88a2d74d6c42a22e9f8c62cb2" transform="translate(-6.499 -0.02)">
    <path id="Trazado_35" data-name="Trazado 35" d="M22.69,4.962H21.366V3.7A1.9,1.9,0,0,0,19.5,1.776h-1a2.124,2.124,0,0,0-4.184,0H8.361A1.9,1.9,0,0,0,6.5,3.7v13.84a1.9,1.9,0,0,0,1.862,1.929H9.685v1.257a1.9,1.9,0,0,0,1.862,1.929H22.69a1.9,1.9,0,0,0,1.862-1.929V6.891A1.9,1.9,0,0,0,22.69,4.962Zm-6.28-3.54a.708.708,0,1,1-.708.708.708.708,0,0,1,.708-.708ZM8.361,18.059a.484.484,0,0,1-.446-.513V3.7a.484.484,0,0,1,.446-.513h5.986L13.078,4.461a.708.708,0,1,0,1,1L15.5,4.044a2.134,2.134,0,0,0,2.75-.853H19.5a.484.484,0,0,1,.446.513v13.84a.484.484,0,0,1-.446.513Zm14.775,2.672a.484.484,0,0,1-.446.513H11.547a.484.484,0,0,1-.446-.513V19.474h8.4a1.9,1.9,0,0,0,1.862-1.929V6.377H22.69a.484.484,0,0,1,.446.513Z" transform="translate(0 0)" fill="#2095d2"/>
    <path id="Trazado_36" data-name="Trazado 36" d="M23,22.98H15.208a.708.708,0,1,0,0,1.416H23a.708.708,0,1,0,0-1.416Zm0,3.54H15.208a.708.708,0,1,0,0,1.416H23a.708.708,0,1,0,0-1.416Zm0,3.186a.708.708,0,1,0,.708.708A.708.708,0,0,0,23,29.705Zm-2.832,0a.708.708,0,1,0,.708.708.708.708,0,0,0-.708-.708Z" transform="translate(-5.169 -14.832)" fill="#2095d2"/>
  </g>
</svg>
